<?xml version="1.0" encoding="UTF-8" standalone="no"?>
<!-- Created with Inkscape (http://www.inkscape.org/) -->

<svg
   width="6.3501296mm"
   height="6.3504195mm"
   viewBox="0 0 6.3501296 6.3504195"
   version="1.1"
   id="svg1"
   xml:space="preserve"
   xmlns="http://www.w3.org/2000/svg"
   xmlns:svg="http://www.w3.org/2000/svg"><defs
     id="defs1" /><g
     id="layer1"
     transform="translate(-371.07853,-530.46739)"><g
       id="g137"
       transform="matrix(0.26458333,0,0,0.26458333,371.07861,530.46745)"><path
         d="m 20.718,20.706 c 0.258,-0.176 -0.021,-1.021 -1.134,-1.241 -0.986,0.915 0.17,1.872 1.134,1.241 z M 5.123,20.924 C 5.914,21.621 7.115,20.772 7.5,19.793 7.26,19.472 6.814,19.36 6.357,19.389 H 6.355 v -10e-4 c -1.008,0.059 -2.088,0.803 -1.232,1.536 z"
         id="path1-91" /><path
         d="M 23.076,10.327 13.929,0.817 A 2.977,2.977 0 0 0 11.871,0 2.748,2.748 0 0 0 9.878,0.817 l -8.825,9.184 c -3.343,3.394 2.164,3.11 4.154,4.395 0.922,0.612 -2.955,1.393 -2.164,2.199 0.771,0.806 4.65,1.545 5.422,2.33 0.771,0.804 -1.564,1.653 -0.793,2.457 0.75,0.806 2.549,0.044 2.87,1.872 0.235,1.349 3.3,0.677 4.672,-0.479 0.854,-0.741 -1.479,-0.741 -0.708,-1.545 1.929,-1.98 3.642,-0.889 4.349,-2.719 0.387,-0.979 -2.913,-1.677 -2.034,-2.308 2.101,-1.502 9.812,-2.264 6.255,-5.876 z M 17.011,6.278 15.277,4.843 14.934,6.953 13.499,6.169 11.163,7.671 10.392,4.516 9.15,7.257 6.043,7.235 C 5.443,7.235 5.529,6.604 6.15,5.973 7.371,4.601 9.75,2.274 10.5,1.469 a 1.961,1.961 0 0 1 1.445,-0.593 l 10e-4,-0.002 c 0.529,0.003 1.06,0.204 1.444,0.593 l 3.492,3.614 c 0.323,0.326 0.323,1.002 0.129,1.197 z M 23.313,18.4 c -0.141,-0.697 -0.87,-1.018 -1.611,-0.991 v 0.002 h -0.001 c -0.74,0.025 -1.496,0.401 -1.689,1.097 0,0.457 3.492,0.719 3.301,-0.108 z"
         id="path2-7" /></g></g></svg>
